<?xml version="1.0" encoding="UTF-8"?>
<svg id="Layer_2" data-name="Layer 2" xmlns="http://www.w3.org/2000/svg" viewBox="0 0 165.72 162.19">
  <defs>
    <style>
      .cls-1 {
        fill: #163f31;
      }

      .cls-2 {
        fill: #18e299;
      }
    </style>
  </defs>
  <g id="Layer_1-2" data-name="Layer 1">
    <g>
      <path class="cls-1" d="M42.89,35.41c5.44,0,8.45,5.11,6.44,10.08-8.81,8.41-16.44,16.82-20.19,28.75-1.48,4.71-1.55,13.87-5.53,16.29-5.92,3.6-11.08-.88-10.82-7.48.41-10.58,7.65-25.9,14.01-34.31,3.01-3.97,11.05-13.34,16.09-13.34Z"/>
      <path class="cls-1" d="M123.07,37.86c4.78-1.09,7.71,1.67,10.79,4.8,8.88,9.03,18.68,27.65,19.17,40.39.26,6.6-4.9,11.08-10.82,7.48-3.98-2.42-4.05-11.58-5.53-16.29-1.76-5.58-5.77-13.13-9.46-17.66-2.78-3.41-8.94-7.27-9.03-12.04-.05-2.56,2.31-6.1,4.89-6.69Z"/>
      <path class="cls-1" d="M59.56,145.02c4.3-.99,8.56,1.45,12.73,2.21,6.94,1.27,13.74,1.34,20.69.12,5.36-.94,13.06-5.47,17.05.51,7.02,10.51-13.75,13.72-20.19,14.22s-28.85-.48-33.42-5.59c-3.32-3.72-1.76-10.33,3.13-11.45Z"/>
      <path class="cls-2" d="M79.46.2c-21.34,2.47-32.32,28.07-19.02,45.11,11.54,14.78,33.42,14.78,44.95,0C120.74,25.63,103.99-2.65,79.46.2ZM83.88,42.36c-18.4,1.05-20.23-26.56-2.43-28.31,18.85-1.86,20.91,27.26,2.43,28.31Z"/>
      <path class="cls-2" d="M23.88,95.44c-35.57,4.87-30.26,60.57,8.36,55.98,35.19-4.18,29.37-61.15-8.36-55.98ZM28.33,137.65c-18.26.35-19.37-27.33-1.11-28.34,18.72-1.04,19.78,27.99,1.11,28.34Z"/>
      <path class="cls-2" d="M134.36,95.45c-36.11,4.31-30.72,60.51,7.68,55.97,35.16-4.16,29.99-60.47-7.68-55.97ZM140.07,137.54c-19.21,2.41-22.2-26.2-3.72-28.23,18.49-2.03,20.85,26.08,3.72,28.23Z"/>
    </g>
  </g>
</svg>