<?xml version="1.0" encoding="UTF-8"?>
<svg id="Layer_2" data-name="Layer 2" xmlns="http://www.w3.org/2000/svg" viewBox="0 0 160.22 188.14">
  <defs>
    <style>
      .cls-1 {
        fill: #163f31;
      }

      .cls-2 {
        fill: #18e299;
      }
    </style>
  </defs>
  <g id="Layer_1-2" data-name="Layer 1">
    <g>
      <path class="cls-1" d="M76.04.15c2.6.75,5.4.76,8,0,6.46.52,8.65,2.01,14.28,4.03,11.92,4.27,27.36,9.5,39.47,14.61,11.77,4.97,20.3,11.64,21.25,25.36.8,26.48.8,53.5,0,80-.56,7.99-3.29,12.9-8.98,18.52-15,14.84-38.85,26.6-54.69,41.31-3.32,2.35-6.58,2.59-10.33,3.17h-9c-11.74-1.81-14.01-6.91-22.5-13-12.76-9.16-32.39-21.19-43.47-31.53-4.43-4.13-7.05-11.63-8.03-17.47-1.52-26.78-1.35-54.2,0-81,1.42-9.54,5.75-18.07,14.67-22.8S67.7.87,76.04.15Z"/>
      <path class="cls-1" d="M2.04,125.15C-.83,108.06-.52,61.42,2.04,44.15v81Z"/>
      <path class="cls-1" d="M159.04,124.15V44.15c1.57,22.56,1.57,57.44,0,80Z"/>
      <path class="cls-1" d="M85.04,187.15c-1.48.23-2.85.99-4.5.99s-3.02-.76-4.5-.99c1.86-1.68,7.14-1.68,9,0Z"/>
      <path class="cls-1" d="M84.04.15c-1.54,1.67-6.42,1.68-8,0,2.33-.2,5.66-.19,8,0Z"/>
      <path class="cls-2" d="M88.16,101.25c-3.01,3.44,6.74,36.84-10.41,31.68-9.1-2.73-2.33-28.84-4.82-31.68-.19-.22-3.5-.72-5.4-2.1-19.19-13.91-10.06-43.09,13.01-43.09s32.24,29.16,13.01,43.09c-1.9,1.38-5.21,1.88-5.4,2.1Z"/>
    </g>
  </g>
</svg>