<svg width="1451" height="480" viewBox="0 0 1451 480" fill="none" xmlns="http://www.w3.org/2000/svg">
<path d="M299.4 110.29C326.093 110.29 347.175 118.935 362.645 136.225C378.115 153.515 385.85 177.327 385.85 207.66V366H320.785V221.765C320.785 205.385 317.297 193.1 310.32 184.91C303.647 176.417 292.727 172.17 277.56 172.17C260.573 172.17 247.681 177.63 238.885 188.55C230.088 199.167 225.69 214.485 225.69 234.505V366H160.625V221.765C160.625 205.385 157.137 193.1 150.16 184.91C143.487 176.417 132.567 172.17 117.4 172.17C100.413 172.17 87.3698 177.63 78.2698 188.55C69.4732 199.167 65.0748 214.485 65.0748 234.505L65.5298 366H0.00983081V115.75H65.5298V148.965C83.7298 123.182 108.452 110.29 139.695 110.29C176.095 110.29 201.423 126.063 215.68 157.61C235.093 126.063 263 110.29 299.4 110.29ZM440.919 0.179991C452.749 0.179991 462.456 3.81999 470.039 11.1C477.622 18.0767 481.414 27.1767 481.414 38.4C481.414 49.6233 477.622 58.875 470.039 66.155C462.456 73.435 452.749 77.075 440.919 77.075C429.392 77.075 419.686 73.435 411.799 66.155C404.216 58.875 400.424 49.6233 400.424 38.4C400.424 27.48 404.216 18.38 411.799 11.1C419.686 3.81999 429.392 0.179991 440.919 0.179991ZM408.159 366V115.75H473.224V366H408.159ZM641.034 110.29C669.244 110.29 691.387 119.087 707.464 136.68C723.54 154.273 731.579 178.388 731.579 209.025V366H666.514V223.13C666.514 206.143 662.874 193.403 655.594 184.91C648.314 176.417 636.332 172.17 619.649 172.17C582.035 172.17 563.229 192.948 563.229 234.505V366H498.164V115.75H563.229V149.875C582.035 123.485 607.97 110.29 641.034 110.29ZM947.323 298.66L958.243 351.44C950.66 356.597 939.74 361.298 925.483 365.545C911.53 369.488 897.577 371.46 883.623 371.46C856.627 371.46 834.18 362.967 816.283 345.98C798.69 328.993 789.893 303.513 789.893 269.54V177.175H745.303V115.75H789.893V61.605L854.958 47.5V115.75H947.778V177.175H854.958V265.9C854.958 295.93 868.305 310.945 894.998 310.945C906.828 310.945 924.27 306.85 947.323 298.66ZM997.085 0.179991C1008.92 0.179991 1018.62 3.81999 1026.21 11.1C1033.79 18.0767 1037.58 27.1767 1037.58 38.4C1037.58 49.6233 1033.79 58.875 1026.21 66.155C1018.62 73.435 1008.92 77.075 997.085 77.075C985.559 77.075 975.852 73.435 967.965 66.155C960.382 58.875 956.59 49.6233 956.59 38.4C956.59 27.48 960.382 18.38 967.965 11.1C975.852 3.81999 985.559 0.179991 997.085 0.179991ZM964.325 366V115.75H1029.39V366H964.325ZM1201.3 67.065C1171.87 67.065 1157.16 82.99 1157.16 114.84V115.75H1240.43V177.175H1157.16V366H1092.1V177.175H1047.51V115.75H1092.1V111.655C1092.1 78.2883 1101.95 53.1117 1121.67 36.125C1141.39 18.835 1165.5 10.19 1194.02 10.19C1216.77 10.19 1236.48 13.9816 1253.17 21.565L1241.34 74.345L1232.69 72.07C1221.16 68.7333 1210.7 67.065 1201.3 67.065ZM1380.7 115.75H1450.32L1287.43 479.75H1218.27L1283.79 332.785L1187.33 115.75H1256.49L1318.37 262.26L1380.7 115.75Z" fill="white"/>
</svg>
